<?xml version="1.0" encoding="UTF-8"?>
<!-- Compact square emblem 160x160 -->
<svg width="160" height="160" viewBox="0 0 112 112" xmlns="http://www.w3.org/2000/svg" role="img" aria-labelledby="title desc">
  <title id="title">TOUSKIE emblem</title>
  <desc id="desc">Compact speech-bubble emblem inspired by the Touskie brand.</desc>
  <defs>
    <linearGradient id="gGrad" x1="0" x2="1" y1="0" y2="1">
      <stop offset="0%" stop-color="#F59E0B" />
      <stop offset="100%" stop-color="#059669" />
    </linearGradient>
    <filter id="s" x="-50%" y="-50%" width="200%" height="200%">
      <feDropShadow dx="0" dy="4" stdDeviation="6" flood-color="#000" flood-opacity="0.12" />
    </filter>
  </defs>

  <g transform="translate(8,6)">
    <path d="M56 4c27.6 0 50 19.9 50 44.5C106 81.1 83.6 101 56 101 37 101 20.6 94.2 9 82.2 6.6 80 2 80.9 1 77.3c-1.2-3.9 2.1-7 5.6-8.8C19 62.3 30 64 39 60c0 0 4.6-1.6 8-7.6 5.3-9.6 9.9-27.4 8.6-36.6C55.9 9.1 55.9 4 56 4z" fill="url(#gGrad)" filter="url(#s)" />
    <circle cx="56" cy="52" r="28" fill="#ffffff" opacity="0.95" />
    <g transform="translate(56,52)" fill="none" stroke="#059669" stroke-width="3" stroke-linecap="round" stroke-linejoin="round">
      <circle cx="0" cy="0" r="14" fill="#F9FAFB" stroke="none" />
      <path d="M6 10 L12 16" stroke="#059669" stroke-width="3" stroke-linecap="round" />
      <path d="M-6 -6 a10 10 0 1 1 12 6" stroke="#059669" stroke-width="2.4" fill="none" />
    </g>
  </g>
</svg>