<?xml version="1.0" encoding="UTF-8"?>
<!-- White-on-transparent logo for dark headers -->
<svg width="520" height="120" viewBox="0 0 520 120" xmlns="http://www.w3.org/2000/svg" role="img" aria-labelledby="title desc">
  <title id="title">Touskié.tn white logo</title>
  <desc id="desc">White-on-transparent logo version for dark backgrounds.</desc>
  <defs>
    <filter id="soft" x="-50%" y="-50%" width="200%" height="200%"><feDropShadow dx="0" dy="6" stdDeviation="8" flood-color="#000" flood-opacity="0.18" /></filter>
  </defs>

  <g transform="translate(20,10)">
    <path d="M56 4c27.6 0 50 19.9 50 44.5C106 81.1 83.6 101 56 101 37 101 20.6 94.2 9 82.2 6.6 80 2 80.9 1 77.3c-1.2-3.9 2.1-7 5.6-8.8C19 62.3 30 64 39 60c0 0 4.6-1.6 8-7.6 5.3-9.6 9.9-27.4 8.6-36.6C55.9 9.1 55.9 4 56 4z" fill="#ffffff" filter="url(#soft)" />
    <circle cx="56" cy="52" r="28" fill="#ffffff" opacity="0.98" />
    <g transform="translate(56,52)" fill="none" stroke="#0f172a" stroke-width="3" stroke-linecap="round" stroke-linejoin="round">
      <circle cx="0" cy="0" r="14" fill="#0f172a" stroke="none" />
      <path d="M6 10 L12 16" stroke="#0f172a" stroke-width="3" stroke-linecap="round" />
      <path d="M-6 -6 a10 10 0 1 1 12 6" stroke="#0f172a" stroke-width="2.4" fill="none" />
    </g>
  </g>

  <g transform="translate(140,72)">
    <text x="0" y="0" font-family="Inter, system-ui, -apple-system, 'Segoe UI', Roboto, 'Helvetica Neue', Arial" font-weight="800" font-size="36" letter-spacing="-0.02em">
  <tspan fill="#ffffff">Touskié</tspan>
      <tspan fill="#ffffff" font-weight="700">.tn</tspan>
    </text>
  </g>
</svg>