<?xml version="1.0" encoding="UTF-8"?>
<!-- Color-inverted wordmark (amber wordmark, green emblem) -->
<svg width="520" height="120" viewBox="0 0 520 120" xmlns="http://www.w3.org/2000/svg" role="img" aria-labelledby="title desc">
  <title id="title">TOUSKIE.tn inverted</title>
  <desc id="desc">Color-inverted logo: amber wordmark with green emblem.</desc>
  <defs>
    <linearGradient id="invGrad" x1="0" x2="1" y1="0" y2="1">
      <stop offset="0%" stop-color="#059669" />
      <stop offset="100%" stop-color="#06b6a4" />
    </linearGradient>
  </defs>

  <g transform="translate(20,10)">
    <path d="M56 4c27.6 0 50 19.9 50 44.5C106 81.1 83.6 101 56 101 37 101 20.6 94.2 9 82.2 6.6 80 2 80.9 1 77.3c-1.2-3.9 2.1-7 5.6-8.8C19 62.3 30 64 39 60c0 0 4.6-1.6 8-7.6 5.3-9.6 9.9-27.4 8.6-36.6C55.9 9.1 55.9 4 56 4z" fill="#059669" />
    <circle cx="56" cy="52" r="28" fill="#ffffff" opacity="0.96" />
    <g transform="translate(56,52)" fill="none" stroke="#F59E0B" stroke-width="3" stroke-linecap="round" stroke-linejoin="round">
      <circle cx="0" cy="0" r="14" fill="#F9FAFB" stroke="none" />
      <path d="M6 10 L12 16" stroke="#F59E0B" stroke-width="3" stroke-linecap="round" />
      <path d="M-6 -6 a10 10 0 1 1 12 6" stroke="#F59E0B" stroke-width="2.4" fill="none" />
    </g>
  </g>

  <g transform="translate(140,72)">
    <text x="0" y="0" font-family="Inter, system-ui, -apple-system, 'Segoe UI', Roboto, 'Helvetica Neue', Arial" font-weight="800" font-size="36" letter-spacing="-0.02em">
      <tspan fill="#F59E0B">TOUSKIE</tspan>
      <tspan fill="#059669" font-weight="700">.tn</tspan>
    </text>
  </g>
</svg>